PathFileType	4	(X/Y/Z)	pose_F01_0-91.trc
DataRate	CameraRate	NumFrames	NumMarkers	Units	OrigDataRate	OrigDataStartFrame	OrigNumFrames
30	30	5	21	m	30	56	91
Frame#	Time	CHip			RHip			RKnee			RAnkle			RBigToe			RSmallToe			RHeel			LHip			LKnee			LAnkle			LBigToe			LSmallToe			LHeel			Neck			Nose			RShoulder			RElbow			RWrist			LShoulder			LElbow			LWrist			
		X1	Y1	Z1	X2	Y2	Z2	X3	Y3	Z3	X4	Y4	Z4	X5	Y5	Z5	X6	Y6	Z6	X7	Y7	Z7	X8	Y8	Z8	X9	Y9	Z9	X10	Y10	Z10	X11	Y11	Z11	X12	Y12	Z12	X13	Y13	Z13	X14	Y14	Z14	X15	Y15	Z15	X16	Y16	Z16	X17	Y17	Z17	X18	Y18	Z18	X19	Y19	Z19	X20	Y20	Z20	X21	Y21	Z21	
56	1.8666666666666667	-0.17054151278751276	1.881704609055904	-0.551262951226599	-0.1817208736163104	1.8774733898012534	-0.49466142675662494	-0.196878819796519	1.7424036702586656	-0.4320002759165469	-0.17756105052156915	1.6110153994848109	-0.427397880473715	-0.20240038948823766	1.5782726571655779	-0.37705642422341107	-0.1986685939464563	1.5875905222806774	-0.35915980433536493	-0.17382433790748186	1.5996235374597707	-0.4392771993938916	-0.16004098254178853	1.8861334359563449	-0.6140625722466666	-0.1643774872888276	1.741931895612864	-0.6513066424569233	-0.15171773403896324	1.586707949783932	-0.7241741834245853	-0.3051536013065587	1.4849846941795595	-1.1711768470592574	-0.2857433839347555	1.484025208013591	-1.20144141437398	-0.14137537290875313	1.5705538078539594	-0.7277643571176405	-0.18459218433076569	2.034139012393034	-0.5441030209459098	-0.21083871868282586	2.084937857120939	-0.48530052237142374	-0.19153267420694037	2.028088282965776	-0.4672813528257648	-0.22344588116219627	1.9905380220894444	-0.32740508131420115	-0.21504437854939415	2.046842514660738	-0.39747546636855063	-0.17617125665257033	2.041882629878959	-0.621005253121461	-0.22509965764078216	2.0078641797916337	-0.5545903736312597	-0.23115706552576687	2.0495697977556473	-0.4912219669194203
57	1.9	-0.17278005350012557	1.8792686799170633	-0.5486693235511025	-0.18111631765984157	1.8749664456235096	-0.49108427401737154	-0.19869061664611043	1.7449418591231243	-0.4301127627350202	-0.17739932253804436	1.6098502492164797	-0.427611404226651	-0.20212312755017062	1.5766701441266948	-0.37714199840531093	-0.19861169936231818	1.587239484076958	-0.35912372722095226	-0.1738130627565704	1.5993520808264075	-0.43931423837110295	-0.15945484028643087	1.8861740554195447	-0.6109457949970349	-0.16607754124353638	1.7446278942289737	-0.6496585904240585	-0.15155779029737906	1.5886715521119328	-0.7247550484477051	-0.30284833445216736	1.4833815732983429	-1.173895272244816	-0.28347995810300564	1.4833013447791812	-1.2050821649699144	-0.1417284524110184	1.5750750840466814	-0.7283970609378868	-0.1828002300422708	2.0338672002450706	-0.5377052176603816	-0.20974542710785588	2.087331577877627	-0.4826953113331416	-0.1897215679448523	2.027043037147403	-0.46090718358721305	-0.22295653711350075	1.9998534608428449	-0.320944253650882	-0.21203344520406314	2.0564892559501016	-0.40715420495889937	-0.17738038119990504	2.0429125241005277	-0.6161284700405311	-0.22728529060452046	2.0094950117421355	-0.5528400109948325	-0.20932244125771418	2.0488770331718795	-0.5224561427725836
58	1.9333333333333333	-0.17169123939614445	1.8789351251400535	-0.5453792608693628	-0.1800876660499518	1.8735052598520807	-0.48754564479184653	-0.1965079706264386	1.7394396130588143	-0.43167050287616393	-0.17757763045253486	1.6112404820517208	-0.4273467158176683	-0.2041695509187575	1.5772723908165	-0.37480163866787475	-0.20036631639718297	1.586489069395595	-0.3569571501304825	-0.17373454858718246	1.601898397599552	-0.43958655283494763	-0.16048327214005875	1.8833380452577633	-0.6050078643618879	-0.16593104241870218	1.7433846547056888	-0.6496086969400178	-0.15373284962560194	1.5883785989022352	-0.7225440059826034	-0.1814958167385388	1.541816434785252	-0.7061880688542331	-0.2858340886281104	1.4849787687487639	-1.2012026786372745	-0.14236511196541826	1.5738281662498355	-0.7314541275628943	-0.18283351456415442	2.0334448521663666	-0.5286796800724168	-0.20783847610118528	2.0887428417872735	-0.48542603806172346	-0.19339061717520997	2.0287796247391108	-0.45634217148005457	-0.2208803222855359	2.0007759017430122	-0.3146550924933597	-0.21418698559054963	2.057072652800122	-0.4063717735199385	-0.17469031843157118	2.042411331747775	-0.6061486225318008	-0.22801828507015076	2.0112641732766527	-0.5650842143110524	-0.2093336926906825	2.0496408033146287	-0.5223722794789945
59	1.9666666666666666	-0.16941775749548812	1.878846673533806	-0.5474093264307432	-0.17884648978281462	1.8733642776221886	-0.48419353684368316	-0.19722948050248965	1.740542621879044	-0.4266814489274464	-0.17630560773797616	1.6099013768915391	-0.4244012614278759	-0.20418699433275872	1.5773727617554987	-0.37486026926551974	-0.19867009792068335	1.587372774482359	-0.3591265240662019	-0.16958016974634754	1.5984833807568168	-0.4436641716924789	-0.1579740481500251	1.8844177775664879	-0.6073498352264255	-0.1655420649921366	1.7394406157999862	-0.6494952725488691	-0.15328003994733777	1.587505508113009	-0.7233626783702999	-0.30398420529111	1.4817909267482055	-1.1770102385412238	-0.28356818266185957	1.484100088431765	-1.204927615764336	-0.14449620103048702	1.5750525261705925	-0.7300795014091026	-0.1819742542212598	2.03219419848681	-0.525424313375892	-0.20962638888400112	2.0888778185663237	-0.49102352470003047	-0.19064864029270678	2.024430160841303	-0.4463350711210827	-0.22060642955508228	1.999213455367189	-0.30592922394425354	-0.21427413700665354	2.0596350059997457	-0.40780693351435626	-0.17580660169062026	2.040989182357889	-0.600054333567042	-0.2184448183628297	2.0083532322513737	-0.5869608917828565	-0.21180801424931353	2.0472868246424856	-0.5652825207693635
60	2.0	-0.17168323002459532	1.87895713805819	-0.5453084827991845	-0.17913882748565454	1.8733944760388197	-0.4842242603983545	-0.19731465278136176	1.7379858528996237	-0.42626974724479816	-0.17725445660049435	1.6094674737344008	-0.42758549639385846	-0.2016424750269179	1.576661910556732	-0.37766941545085003	-0.19847171474518627	1.5865796382420503	-0.35907180597434474	-0.17157302212028935	1.598259253765385	-0.4414744109562339	-0.16125718435133415	1.885931700928846	-0.6084795224472801	-0.16513690422621327	1.7407390481512548	-0.6460329141303004	-0.1533801318776428	1.5892101068961744	-0.7230075550007117	-0.17652801718440736	1.5421096477000766	-0.7115442335462421	-0.28116713537770677	1.4868170733671315	-1.20830058941909	-0.14340415687359104	1.5744160415221629	-0.7265516822941684	-0.18318268684135774	2.029778150877926	-0.5201717642267751	-0.208699277063479	2.084181791128925	-0.4954879575882916	-0.19196927946431924	2.0197115934012553	-0.44099537184590315	-0.21971134443405266	1.9913471671502476	-0.3008090317206032	-0.21316498170683698	2.0507933412508392	-0.3933836751321613	-0.17416561371653175	2.039621958826112	-0.59397817903667	-0.21232280052453542	2.0010814859861368	-0.6014941110622923	-0.21213856669421247	2.039566506659794	-0.5738656148364863
